HIERARCHY
ROOT Root
{
  OFFSET 0.0 0.0 0.0
  CHANNELS 6 Xposition Yposition Zposition Zrotation Yrotation Xrotation
  JOINT Hips
  {
    OFFSET 0.0 100.0 0.0
    CHANNELS 6 Xposition Yposition Zposition Zrotation Yrotation Xrotation
    JOINT Spine1
    {
      OFFSET -0.013727 5.003763 -0.053727
      CHANNELS 3 Zrotation Yrotation Xrotation
      JOINT Spine2
      {
        OFFSET -0.0 7.125301 -0.029825
        CHANNELS 3 Zrotation Yrotation Xrotation
        JOINT Chest
        {
          OFFSET -1e-06 7.550063 -0.815971
          CHANNELS 3 Zrotation Yrotation Xrotation
          JOINT Neck1
          {
            OFFSET -0.181677 26.311295 -0.553348
            CHANNELS 3 Zrotation Yrotation Xrotation
            JOINT Neck2
            {
              OFFSET -3e-06 7.709397 2.302585
              CHANNELS 3 Zrotation Yrotation Xrotation
              JOINT Head
              {
                OFFSET -5e-06 6.128916 1.953709
                CHANNELS 3 Zrotation Yrotation Xrotation
                JOINT HeadEnd
                {
                  OFFSET 0.003598 16.065403 -1.835379
                  CHANNELS 3 Zrotation Yrotation Xrotation
                }
                JOINT Jaw
                {
                  OFFSET 0.002637 0.475592 3.094941
                  CHANNELS 3 Zrotation Yrotation Xrotation
                }
                JOINT LeftEye
                {
                  OFFSET 3.206381 5.380205 7.586883
                  CHANNELS 3 Zrotation Yrotation Xrotation
                }
                JOINT RightEye
                {
                  OFFSET -3.22244 5.361869 7.558234
                  CHANNELS 3 Zrotation Yrotation Xrotation
                }
              }
            }
          }
          JOINT LeftShoulder
          {
            OFFSET 1.621652 23.237164 5.113413
            CHANNELS 3 Zrotation Yrotation Xrotation
            JOINT LeftArm
            {
              OFFSET 14.919846 2e-06 -5.502326
              CHANNELS 3 Zrotation Yrotation Xrotation
              JOINT LeftForeArm
              {
                OFFSET 28.739307 0.0 -0.002588
                CHANNELS 3 Zrotation Yrotation Xrotation
                JOINT LeftHand
                {
                  OFFSET 27.093981 -1e-06 0.002609
                  CHANNELS 3 Zrotation Yrotation Xrotation
                  JOINT LeftHandThumb1
                  {
                    OFFSET 2.276482 -1.392045 3.191413
                    CHANNELS 3 Zrotation Yrotation Xrotation
                    JOINT LeftHandThumb2
                    {
                      OFFSET 4.012836 -1.828127 1.641654
                      CHANNELS 3 Zrotation Yrotation Xrotation
                      JOINT LeftHandThumb3
                      {
                        OFFSET 2.798515 0.0 -3e-06
                        CHANNELS 3 Zrotation Yrotation Xrotation
                        JOINT LeftHandThumbEnd
                        {
                          OFFSET 3.180793 -4e-06 4e-06
                          CHANNELS 3 Zrotation Yrotation Xrotation
                        }
                      }
                    }
                  }
                  JOINT LeftHandIndex1
                  {
                    OFFSET 3.247555 -0.531998 2.296169
                    CHANNELS 3 Zrotation Yrotation Xrotation
                    JOINT LeftHandIndex2
                    {
                      OFFSET 6.364578 0.01206 0.1786
                      CHANNELS 3 Zrotation Yrotation Xrotation
                      JOINT LeftHandIndex3
                      {
                        OFFSET 3.662364 0.0 0.0
                        CHANNELS 3 Zrotation Yrotation Xrotation
                        JOINT LeftHandIndex4
                        {
                          OFFSET 2.329242 4e-06 4e-06
                          CHANNELS 3 Zrotation Yrotation Xrotation
                          JOINT LeftHandIndexEnd
                          {
                            OFFSET 2.759615 -0.180537 -0.113024
                            CHANNELS 3 Zrotation Yrotation Xrotation
                          }
                        }
                      }
                    }
                  }
                  JOINT LeftHandMiddle1
                  {
                    OFFSET 3.163495 0.240981 1.000332
                    CHANNELS 3 Zrotation Yrotation Xrotation
                    JOINT LeftHandMiddle2
                    {
                      OFFSET 6.19078 -0.259278 -1.002548
                      CHANNELS 3 Zrotation Yrotation Xrotation
                      JOINT LeftHandMiddle3
                      {
                        OFFSET 4.35652 -4e-06 -1e-06
                        CHANNELS 3 Zrotation Yrotation Xrotation
                        JOINT LeftHandMiddle4
                        {
                          OFFSET 2.996877 -8e-06 0.0
                          CHANNELS 3 Zrotation Yrotation Xrotation
                          JOINT LeftHandMiddleEnd
                          {
                            OFFSET 2.304287 -0.294569 -0.031741
                            CHANNELS 3 Zrotation Yrotation Xrotation
                          }
                        }
                      }
                    }
                  }
                  JOINT LeftHandRing1
                  {
                    OFFSET 2.882643 -0.053652 -0.322543
                    CHANNELS 3 Zrotation Yrotation Xrotation
                    JOINT LeftHandRing2
                    {
                      OFFSET 5.854541 -0.486202 -1.373841
                      CHANNELS 3 Zrotation Yrotation Xrotation
                      JOINT LeftHandRing3
                      {
                        OFFSET 4.350578 0.0 3e-06
                        CHANNELS 3 Zrotation Yrotation Xrotation
                        JOINT LeftHandRing4
                        {
                          OFFSET 2.651321 7e-06 2e-06
                          CHANNELS 3 Zrotation Yrotation Xrotation
                          JOINT LeftHandRingEnd
                          {
                            OFFSET 1.936105 0.077687 -7.1e-05
                            CHANNELS 3 Zrotation Yrotation Xrotation
                          }
                        }
                      }
                    }
                  }
                  JOINT LeftHandPinky1
                  {
                    OFFSET 2.8655 -0.310005 -1.600378
                    CHANNELS 3 Zrotation Yrotation Xrotation
                    JOINT LeftHandPinky2
                    {
                      OFFSET 5.087849 -1.331141 -1.77123
                      CHANNELS 3 Zrotation Yrotation Xrotation
                      JOINT LeftHandPinky3
                      {
                        OFFSET 3.070974 4e-06 0.0
                        CHANNELS 3 Zrotation Yrotation Xrotation
                        JOINT LeftHandPinky4
                        {
                          OFFSET 1.549672 0.0 1e-06
                          CHANNELS 3 Zrotation Yrotation Xrotation
                          JOINT LeftHandPinkyEnd
                          {
                            OFFSET 1.944893 -0.157802 0.057219
                            CHANNELS 3 Zrotation Yrotation Xrotation
                          }
                        }
                      }
                    }
                  }
                }
              }
            }
          }
          JOINT RightShoulder
          {
            OFFSET -1.380118 23.180309 5.214158
            CHANNELS 3 Zrotation Yrotation Xrotation
            JOINT RightArm
            {
              OFFSET -15.037196 1.2e-05 -5.545604
              CHANNELS 3 Zrotation Yrotation Xrotation
              JOINT RightForeArm
              {
                OFFSET -28.736639 2e-06 -0.002597
                CHANNELS 3 Zrotation Yrotation Xrotation
                JOINT RightHand
                {
                  OFFSET -27.133619 -0.0 0.002613
                  CHANNELS 3 Zrotation Yrotation Xrotation
                  JOINT RightHandThumb1
                  {
                    OFFSET -2.274032 -1.383988 3.163127
                    CHANNELS 3 Zrotation Yrotation Xrotation
                    JOINT RightHandThumb2
                    {
                      OFFSET -4.011429 -1.827466 1.640914
                      CHANNELS 3 Zrotation Yrotation Xrotation
                      JOINT RightHandThumb3
                      {
                        OFFSET -2.794935 -4e-06 -3e-06
                        CHANNELS 3 Zrotation Yrotation Xrotation
                        JOINT RightHandThumbEnd
                        {
                          OFFSET -3.183852 4e-06 1e-06
                          CHANNELS 3 Zrotation Yrotation Xrotation
                        }
                      }
                    }
                  }
                  JOINT RightHandIndex1
                  {
                    OFFSET -3.253266 -0.520057 2.282866
                    CHANNELS 3 Zrotation Yrotation Xrotation
                    JOINT RightHandIndex2
                    {
                      OFFSET -6.341917 0.012471 0.178266
                      CHANNELS 3 Zrotation Yrotation Xrotation
                      JOINT RightHandIndex3
                      {
                        OFFSET -3.654871 -8e-06 -0.0
                        CHANNELS 3 Zrotation Yrotation Xrotation
                        JOINT RightHandIndex4
                        {
                          OFFSET -2.327586 0.0 1e-06
                          CHANNELS 3 Zrotation Yrotation Xrotation
                          JOINT RightHandIndexEnd
                          {
                            OFFSET -2.76179 -0.180656 -0.113078
                            CHANNELS 3 Zrotation Yrotation Xrotation
                          }
                        }
                      }
                    }
                  }
                  JOINT RightHandMiddle1
                  {
                    OFFSET -3.168106 0.246593 1.00103
                    CHANNELS 3 Zrotation Yrotation Xrotation
                    JOINT RightHandMiddle2
                    {
                      OFFSET -6.180828 -0.258836 -1.000895
                      CHANNELS 3 Zrotation Yrotation Xrotation
                      JOINT RightHandMiddle3
                      {
                        OFFSET -4.348901 0.0 -0.0
                        CHANNELS 3 Zrotation Yrotation Xrotation
                        JOINT RightHandMiddle4
                        {
                          OFFSET -3.00024 -4e-06 -2e-06
                          CHANNELS 3 Zrotation Yrotation Xrotation
                          JOINT RightHandMiddleEnd
                          {
                            OFFSET -2.30252 -0.29437 -0.031706
                            CHANNELS 3 Zrotation Yrotation Xrotation
                          }
                        }
                      }
                    }
                  }
                  JOINT RightHandRing1
                  {
                    OFFSET -2.88569 -0.067952 -0.308858
                    CHANNELS 3 Zrotation Yrotation Xrotation
                    JOINT RightHandRing2
                    {
                      OFFSET -5.854198 -0.48613 -1.373731
                      CHANNELS 3 Zrotation Yrotation Xrotation
                      JOINT RightHandRing3
                      {
                        OFFSET -4.33881 -4e-06 -0.0
                        CHANNELS 3 Zrotation Yrotation Xrotation
                        JOINT RightHandRing4
                        {
                          OFFSET -2.654903 -4e-06 4e-06
                          CHANNELS 3 Zrotation Yrotation Xrotation
                          JOINT RightHandRingEnd
                          {
                            OFFSET -1.933568 0.077527 -5.2e-05
                            CHANNELS 3 Zrotation Yrotation Xrotation
                          }
                        }
                      }
                    }
                  }
                  JOINT RightHandPinky1
                  {
                    OFFSET -2.866425 -0.342796 -1.584145
                    CHANNELS 3 Zrotation Yrotation Xrotation
                    JOINT RightHandPinky2
                    {
                      OFFSET -5.091371 -1.332055 -1.772385
                      CHANNELS 3 Zrotation Yrotation Xrotation
                      JOINT RightHandPinky3
                      {
                        OFFSET -3.062664 -4e-06 1e-06
                        CHANNELS 3 Zrotation Yrotation Xrotation
                        JOINT RightHandPinky4
                        {
                          OFFSET -1.546529 4e-06 -2e-06
                          CHANNELS 3 Zrotation Yrotation Xrotation
                          JOINT RightHandPinkyEnd
                          {
                            OFFSET -1.945119 -0.157718 0.057211
                            CHANNELS 3 Zrotation Yrotation Xrotation
                          }
                        }
                      }
                    }
                  }
                }
              }
            }
          }
        }
      }
    }
    JOINT LeftLeg
    {
      OFFSET 10.043214 -8.434526 2.595655
      CHANNELS 3 Zrotation Yrotation Xrotation
      JOINT LeftShin
      {
        OFFSET -1e-06 -43.221752 -0.802913
        CHANNELS 3 Zrotation Yrotation Xrotation
        JOINT LeftFoot
        {
          OFFSET 1e-06 -42.155094 -3.481523
          CHANNELS 3 Zrotation Yrotation Xrotation
          JOINT LeftToeBase
          {
            OFFSET 0.0 -5.059472 13.231529
            CHANNELS 3 Zrotation Yrotation Xrotation
            JOINT LeftToeEnd
            {
              OFFSET -0.009607 -1.647619 6.513017
              CHANNELS 3 Zrotation Yrotation Xrotation
            }
          }
        }
      }
    }
    JOINT RightLeg
    {
      OFFSET -10.047278 -8.29526 2.620317
      CHANNELS 3 Zrotation Yrotation Xrotation
      JOINT RightShin
      {
        OFFSET 1e-06 -43.362206 -0.805556
        CHANNELS 3 Zrotation Yrotation Xrotation
        JOINT RightFoot
        {
          OFFSET 2e-06 -42.117393 -3.478398
          CHANNELS 3 Zrotation Yrotation Xrotation
          JOINT RightToeBase
          {
            OFFSET -0.0 -5.079609 13.284196
            CHANNELS 3 Zrotation Yrotation Xrotation
            JOINT RightToeEnd
            {
              OFFSET 0.009532 -1.634378 6.460591
              CHANNELS 3 Zrotation Yrotation Xrotation
            }
          }
        }
      }
    }
  }
}
MOTION
Frames: 4
Frame Time: 0.03333333333333333
0.0 0.0 0.0 0.0 -0.0 0.0 7.151312 99.081345 -138.959045 -2.052529 5.139663 -5.868484 -0.838354 -0.409844 4.180273 -0.231084 -1.240306 -3.215286 2.332803 -3.489894 10.813379 -0.734284 2.62628 0.205062 -2.182138 -4.954508 -3.263218 -0.839327 -6.077859 -18.238495 7.7e-05 -2.2e-05 6e-06 0.037648 -0.041231 0.119581 0.658463 -3.789274 -10.295946 -0.584862 3.70431 -10.33044 -9.495435 -7.638362 11.501834 -60.553078 -9.632402 5.285197 -0.088929 -28.655331 -0.050965 2.457423 0.809617 -12.782693 -5.882111 9.861293 0.702592 -10.93688 -0.360573 7.156212 -0.0 8.774832 -0.0 -16.042156 17.753117 6.053453 -1.844035 2.498507 -2.50728 -10.16361 4.67895 4.621112 -20.976042 -2e-06 1e-06 -21.226307 2.451699 -3.594005 1e-06 -6e-06 0.0 -1.362682 2.2408 -0.746324 -21.33493 0.584912 3.008325 -13.821226 -2e-06 0.0 -23.88719 -0.249079 -0.839485 -60.229469 2.395617 -1.064277 -0.294025 1.679689 0.833256 -14.218221 0.093215 1.300581 -34.212078 -0.287563 0.967168 -20.03323 0.964537 1.212844 -0.0 0.0 -1e-06 -3.440391 0.788233 0.501656 -15.9282 -3.167311 2.999709 -6.33883 -1e-06 2e-06 -18.123461 3.648185 -4.905676 -5e-06 1e-06 -3e-06 10.978652 10.700134 12.431245 64.892448 16.175634 16.614799 1.607251 19.601051 0.316233 7.254439 -3.349267 5.348961 2.243542 -5.255037 -3.180159 14.282896 -0.826594 6.952503 -3e-06 -12.690607 -0.0 16.169624 -17.411667 2.56825 1.665667 -1.955922 -2.8783 4.7278 -4.170588 4.993925 11.020528 3e-06 0.0 12.109056 -3.735716 -2.866784 -0.0 0.0 1e-06 1.291986 -1.928549 -1.498089 14.800132 0.567469 3.865605 14.242576 -1.341735 -6.660658 19.631973 0.143928 -0.648246 49.609085 -0.491936 -6.288718 0.353029 -1.51115 -0.03194 20.222797 3.68431 2.31663 18.787275 6e-06 -1e-06 10.75163 -0.479868 1.397905 0.0 0.0 -1e-06 3.273808 0.305946 -0.580109 21.48682 11.830379 2.266131 8.16293 3e-06 -1e-06 18.399088 -3.798983 -4.940577 2e-06 -1e-06 -0.0 0.875326 0.064491 6.238986 0.036908 0.006003 15.802258 2.107033 1.727441 -12.57128 1.699732 -2.008486 0.377198 0.0 0.0 2e-06 1.143921 -17.902971 -13.574153 -0.009343 -0.192967 24.294371 -2.468515 -9.127146 1.693583 -1.440495 0.907095 -2.650715 -0.0 0.0 -1e-06 
0.0 0.0 0.0 0.0 -0.0 0.0 7.379142 99.260895 -140.695602 -2.013119 4.119062 -5.814381 -0.708327 -0.405784 3.868882 -0.22725 -0.940617 -3.316389 2.256292 -3.187251 10.642734 -1.336704 2.825165 0.232963 -2.09077 -4.852856 -3.269916 -0.882438 -5.83721 -17.798958 7.7e-05 -2.2e-05 6e-06 0.03352 -0.069796 0.13315 0.654005 -3.815379 -10.27945 -0.590375 3.672859 -10.317818 -10.126136 -6.679244 11.526501 -59.768814 -5.806384 6.477822 -0.436134 -29.206774 0.065999 1.071143 0.180768 -11.045001 -5.882108 9.861292 0.702591 -10.936872 -0.360574 7.156203 -1e-06 8.77483 -0.0 -16.012791 17.717329 5.955941 -1.844032 2.498505 -2.507277 -10.163599 4.678948 4.621107 -20.976025 -1e-06 2e-06 -21.22629 2.4517 -3.594002 1e-06 -6e-06 -0.0 -1.362682 2.240799 -0.746323 -21.334913 0.584911 3.008321 -13.821215 -2e-06 1e-06 -23.887171 -0.249077 -0.839486 -60.242569 2.341014 -1.006111 -0.294024 1.679688 0.833255 -14.218208 0.093217 1.30058 -34.212048 -0.287561 0.967168 -20.033211 0.964537 1.212841 1e-06 -0.0 -1e-06 -3.440389 0.788234 0.501655 -15.928185 -3.167311 2.999707 -6.338827 0.0 1e-06 -18.123446 3.648185 -4.905672 -4e-06 0.0 -2e-06 10.964891 10.964907 12.393705 64.820511 15.715637 15.554647 1.267027 19.790451 0.206395 4.309003 -3.156206 5.577798 2.243542 -5.255039 -3.180159 14.282896 -0.826596 6.952507 -2e-06 -12.69061 0.0 16.26158 -17.415462 2.556715 1.665667 -1.955923 -2.878298 4.7278 -4.170589 4.993926 11.020531 2e-06 0.0 12.109058 -3.735718 -2.866784 1e-06 -1e-06 -0.0 1.291987 -1.92855 -1.498087 14.800136 0.567468 3.865611 14.242579 -1.341738 -6.660657 19.631973 0.143925 -0.648245 49.746456 -0.536549 -6.17379 0.353029 -1.511151 -0.031939 20.222799 3.68431 2.316631 18.787281 3e-06 -0.0 10.751632 -0.479869 1.397904 0.0 0.0 -0.0 3.273808 0.305947 -0.58011 21.48682 11.830379 2.266133 8.16293 2e-06 -1e-06 18.39909 -3.798986 -4.94058 3e-06 -0.0 -1e-06 0.508193 0.236973 5.357737 0.037251 0.019096 15.493654 2.159168 2.666534 -11.919464 1.696052 -2.010057 0.547581 0.0 0.0 2e-06 0.460548 -17.428165 -10.648017 -0.117191 -0.372794 29.46282 -3.493492 -8.313646 1.887217 -1.436632 0.867628 -2.654775 0.0 0.0 -1e-06 
0.0 0.0 0.0 0.0 -0.0 0.0 7.574808 99.336418 -142.34845 -1.671796 3.024278 -5.679095 -0.616433 -0.36572 3.449877 -0.240432 -0.607742 -3.438981 2.015775 -2.821164 10.493971 -2.021877 3.035672 0.21604 -1.981436 -4.753068 -3.283917 -0.894989 -5.701356 -17.190535 7.7e-05 -2.3e-05 6e-06 0.025734 -0.099936 0.132379 0.651063 -3.842144 -10.273636 -0.605058 3.638648 -10.309494 -11.252116 -5.656899 11.525322 -58.698906 -2.296712 6.815022 -0.659566 -28.589739 0.170114 0.126088 -0.064474 -9.213481 -5.882105 9.861281 0.70259 -10.93687 -0.360574 7.156205 1e-06 8.774821 0.0 -16.068487 17.684517 5.833017 -1.844033 2.498505 -2.507278 -10.163598 4.678943 4.621108 -20.976021 -4e-06 1e-06 -21.226286 2.451695 -3.593998 1e-06 -6e-06 -1e-06 -1.362681 2.240796 -0.746324 -21.334911 0.58491 3.008321 -13.821213 -2e-06 1e-06 -23.887167 -0.24908 -0.839484 -60.31023 2.260508 -0.983805 -0.294024 1.679687 0.833256 -14.218207 0.093215 1.300579 -34.212048 -0.287564 0.96717 -20.033211 0.964536 1.212842 1e-06 -1e-06 -1e-06 -3.440388 0.788234 0.501656 -15.928185 -3.16731 2.999706 -6.338825 -1e-06 1e-06 -18.123444 3.64818 -4.905669 -5e-06 0.0 -2e-06 10.890359 11.241477 12.290999 64.756615 15.209026 14.591323 0.948794 20.273312 0.111288 1.770488 -2.810337 5.379045 2.243541 -5.255036 -3.180157 14.28289 -0.826595 6.952504 -3e-06 -12.690601 1e-06 16.350857 -17.503233 2.546984 1.665667 -1.955922 -2.878298 4.727798 -4.170587 4.993925 11.020526 3e-06 -1e-06 12.109052 -3.735716 -2.866785 -0.0 -0.0 -1e-06 1.291986 -1.928549 -1.498088 14.800129 0.567467 3.86561 14.242574 -1.341737 -6.660657 19.631969 0.143925 -0.648245 49.848797 -0.561892 -6.106359 0.353029 -1.511151 -0.031942 20.222794 3.68431 2.316631 18.787271 4e-06 1e-06 10.751629 -0.47987 1.397906 -1e-06 -0.0 -0.0 3.273807 0.305947 -0.580111 21.486814 11.830373 2.266134 8.16293 3e-06 -1e-06 18.399084 -3.798984 -4.940573 4e-06 -0.0 -3e-06 -0.073184 0.905696 4.266489 0.036248 0.039984 15.363693 2.241058 3.206134 -11.400246 1.684995 -2.003417 0.597026 0.0 0.0 2e-06 -0.897241 -16.744173 -6.99703 -0.146718 -0.516725 33.608299 -3.594144 -7.035367 2.256316 -1.42643 0.843478 -2.76427 0.0 0.0 -2e-06 
0.0 0.0 0.0 0.0 -0.0 0.0 7.713129 99.338837 -143.953918 -1.264675 1.885121 -5.527124 -0.48061 -0.319623 2.940807 -0.242516 -0.269999 -3.570444 1.68978 -2.418322 10.402506 -2.703357 3.259588 0.208323 -1.876536 -4.588784 -3.307546 -0.895761 -5.611257 -16.532587 7.7e-05 -2.2e-05 6e-06 0.019339 -0.114222 0.118172 0.652497 -3.851667 -10.272569 -0.621142 3.618949 -10.301704 -12.712435 -4.638031 11.466438 -57.574787 0.740175 5.984749 -0.70993 -26.771742 0.203782 -0.290282 0.167635 -7.782884 -5.882112 9.861293 0.702592 -10.936885 -0.360575 7.156211 1e-06 8.774833 -2e-06 -16.184252 17.695423 5.768143 -1.844035 2.498507 -2.50728 -10.163612 4.678948 4.621113 -20.976051 -5e-06 4e-06 -21.226311 2.451698 -3.594001 0.0 -6e-06 0.0 -1.362683 2.2408 -0.746323 -21.334938 0.584909 3.008324 -13.821228 -3e-06 2e-06 -23.887196 -0.249079 -0.839483 -60.415489 2.219983 -0.959688 -0.294026 1.679689 0.833257 -14.218225 0.093214 1.300581 -34.212086 -0.287566 0.967171 -20.033236 0.964536 1.212844 -0.0 -0.0 -0.0 -3.440392 0.788235 0.501656 -15.928205 -3.167313 2.999709 -6.338833 -1e-06 1e-06 -18.12347 3.648185 -4.905675 -3e-06 0.0 -2e-06 10.841193 11.517444 12.205943 64.743599 14.724994 13.845482 0.695378 20.910475 0.046694 0.003547 -2.420592 4.98625 2.243541 -5.255038 -3.180159 14.282896 -0.826594 6.952502 -3e-06 -12.690609 -0.0 16.368528 -17.599451 2.545259 1.665666 -1.955922 -2.878299 4.727801 -4.170589 4.993926 11.020531 3e-06 -1e-06 12.109057 -3.735717 -2.866785 -1e-06 -0.0 -1e-06 1.291986 -1.92855 -1.498092 14.800136 0.567469 3.865609 14.24258 -1.341737 -6.660658 19.631981 0.143927 -0.648245 49.892944 -0.532936 -6.079216 0.353029 -1.51115 -0.03194 20.222801 3.684313 2.316631 18.787283 6e-06 -1e-06 10.751634 -0.479868 1.397906 -1e-06 0.0 -0.0 3.273808 0.305948 -0.580112 21.486824 11.83038 2.266132 8.162933 3e-06 -0.0 18.399092 -3.798986 -4.940576 4e-06 0.0 -2e-06 -0.577816 1.940123 3.026132 0.044723 0.074272 15.561056 2.342477 3.380587 -11.042516 1.673643 -1.993616 0.541676 -0.0 -0.0 2e-06 -2.446424 -15.78893 -2.657127 -0.119422 -0.525038 35.954987 -2.755793 -5.059089 2.687448 -1.417726 0.846024 -2.937004 -0.0 1e-06 -1e-06 
